<svg viewBox="0 0 200 200" xmlns="http://www.w3.org/2000/svg">
  <path fill="#CCCC99" d="M44.6,-78C57.4,-69.8,67.2,-57.1,75.3,-43.4C83.4,-29.6,89.9,-14.8,91.3,0.8C92.7,16.4,89,32.8,80.5,46C72.1,59.2,58.8,69.1,44.6,76.2C30.4,83.4,15.2,87.8,-0.3,88.4C-15.8,88.9,-31.7,85.6,-45.1,78C-58.5,70.3,-69.5,58.4,-77.7,44.7C-85.9,31,-91.2,15.5,-91.8,-0.3C-92.4,-16.2,-88.3,-32.4,-79.6,-45.3C-71,-58.3,-58,-68.1,-44,-75.5C-29.9,-83,-15,-88.2,0.5,-89C15.9,-89.7,31.8,-86.1,44.6,-78Z" transform="translate(100 100)" />
</svg>